<?xml version="1.0" encoding="UTF-8" standalone="no"?>
<!-- Created with Inkscape (http://www.inkscape.org/) -->

<svg
   xmlns:dc="http://purl.org/dc/elements/1.1/"
   xmlns:cc="http://creativecommons.org/ns#"
   xmlns:rdf="http://www.w3.org/1999/02/22-rdf-syntax-ns#"
   xmlns:svg="http://www.w3.org/2000/svg"
   xmlns="http://www.w3.org/2000/svg"
   xmlns:sodipodi="http://sodipodi.sourceforge.net/DTD/sodipodi-0.dtd"
   xmlns:inkscape="http://www.inkscape.org/namespaces/inkscape"
   version="1.1"
   id="svg2"
   xml:space="preserve"
   width="2754.6667"
   height="2078.6667"
   viewBox="0 0 2754.6667 2078.6667"
   sodipodi:docname="Fig3_y_high_anchoring.svg"
   inkscape:version="0.92.4 (5da689c313, 2019-01-14)"><metadata
     id="metadata8"><rdf:RDF><cc:Work
         rdf:about=""><dc:format>image/svg+xml</dc:format><dc:type
           rdf:resource="http://purl.org/dc/dcmitype/StillImage" /><dc:title></dc:title></cc:Work></rdf:RDF></metadata><defs
     id="defs6" /><sodipodi:namedview
     pagecolor="#ffffff"
     bordercolor="#666666"
     borderopacity="1"
     objecttolerance="10"
     gridtolerance="10"
     guidetolerance="10"
     inkscape:pageopacity="0"
     inkscape:pageshadow="2"
     inkscape:window-width="1920"
     inkscape:window-height="1017"
     id="namedview4"
     showgrid="false"
     inkscape:zoom="0.45413725"
     inkscape:cx="1581.6447"
     inkscape:cy="1363.8512"
     inkscape:window-x="-8"
     inkscape:window-y="-8"
     inkscape:window-maximized="1"
     inkscape:current-layer="g10" /><g
     id="g10"
     inkscape:groupmode="layer"
     inkscape:label="ink_ext_XXXXXX"
     transform="matrix(1.3333333,0,0,-1.3333333,0,2078.6667)"><g
       transform="scale(0.114641)"
       id="g14"><path
         inkscape:connector-curvature="0"
         id="path16"
         style="fill:none;stroke:#000000;stroke-width:45.79520035;stroke-linecap:butt;stroke-linejoin:miter;stroke-miterlimit:4;stroke-dasharray:none;stroke-opacity:1"
         d="M 1953.01,1786.5 H 16300" /></g><path
       inkscape:connector-curvature="0"
       id="path18"
       style="fill:none;stroke:#000000;stroke-width:5.25;stroke-linecap:butt;stroke-linejoin:miter;stroke-miterlimit:4;stroke-dasharray:none;stroke-opacity:1"
       d="m 498.395,204.806 v -12.75" /><path
       inkscape:connector-curvature="0"
       id="path20"
       style="fill:none;stroke:#000000;stroke-width:5.25;stroke-linecap:butt;stroke-linejoin:miter;stroke-miterlimit:4;stroke-dasharray:none;stroke-opacity:1"
       d="m 1046.64,204.806 v -12.75" /><path
       inkscape:connector-curvature="0"
       id="path22"
       style="fill:none;stroke:#000000;stroke-width:5.25;stroke-linecap:butt;stroke-linejoin:miter;stroke-miterlimit:4;stroke-dasharray:none;stroke-opacity:1"
       d="m 1594.89,204.806 v -12.75" /><path
       inkscape:connector-curvature="0"
       id="path24"
       style="fill:none;stroke:#000000;stroke-width:5.25;stroke-linecap:butt;stroke-linejoin:miter;stroke-miterlimit:4;stroke-dasharray:none;stroke-opacity:1"
       d="m 223.895,204.806 v -25.5" /><path
       inkscape:connector-curvature="0"
       id="path26"
       style="fill:none;stroke:#000000;stroke-width:5.25;stroke-linecap:butt;stroke-linejoin:miter;stroke-miterlimit:4;stroke-dasharray:none;stroke-opacity:1"
       d="m 772.145,204.806 v -25.5" /><path
       inkscape:connector-curvature="0"
       id="path28"
       style="fill:none;stroke:#000000;stroke-width:5.25;stroke-linecap:butt;stroke-linejoin:miter;stroke-miterlimit:4;stroke-dasharray:none;stroke-opacity:1"
       d="m 1320.39,204.806 v -25.5" /><g
       transform="scale(0.114641)"
       id="g30"><path
         inkscape:connector-curvature="0"
         id="path32"
         style="fill:none;stroke:#000000;stroke-width:45.79520035;stroke-linecap:butt;stroke-linejoin:miter;stroke-miterlimit:4;stroke-dasharray:none;stroke-opacity:1"
         d="M 16300,1786.5 V 1564.07" /></g><path
       inkscape:connector-curvature="0"
       id="path34"
       style="fill:none;stroke:#000000;stroke-width:5.25;stroke-linecap:butt;stroke-linejoin:miter;stroke-miterlimit:4;stroke-dasharray:none;stroke-opacity:1"
       d="M 223.895,204.806 V 1530.06" /><path
       inkscape:connector-curvature="0"
       id="path36"
       style="fill:none;stroke:#000000;stroke-width:5.25;stroke-linecap:butt;stroke-linejoin:miter;stroke-miterlimit:4;stroke-dasharray:none;stroke-opacity:1"
       d="m 223.895,355.556 h -12.75" /><path
       inkscape:connector-curvature="0"
       id="path38"
       style="fill:none;stroke:#000000;stroke-width:5.25;stroke-linecap:butt;stroke-linejoin:miter;stroke-miterlimit:4;stroke-dasharray:none;stroke-opacity:1"
       d="m 223.895,656.306 h -12.75" /><path
       inkscape:connector-curvature="0"
       id="path40"
       style="fill:none;stroke:#000000;stroke-width:5.25;stroke-linecap:butt;stroke-linejoin:miter;stroke-miterlimit:4;stroke-dasharray:none;stroke-opacity:1"
       d="m 223.895,957.806 h -12.75" /><path
       inkscape:connector-curvature="0"
       id="path42"
       style="fill:none;stroke:#000000;stroke-width:5.25;stroke-linecap:butt;stroke-linejoin:miter;stroke-miterlimit:4;stroke-dasharray:none;stroke-opacity:1"
       d="m 223.895,1259.31 h -12.75" /><path
       inkscape:connector-curvature="0"
       id="path44"
       style="fill:none;stroke:#000000;stroke-width:5.25;stroke-linecap:butt;stroke-linejoin:miter;stroke-miterlimit:4;stroke-dasharray:none;stroke-opacity:1"
       d="m 223.895,204.806 h -25.5" /><path
       inkscape:connector-curvature="0"
       id="path46"
       style="fill:none;stroke:#000000;stroke-width:5.25;stroke-linecap:butt;stroke-linejoin:miter;stroke-miterlimit:4;stroke-dasharray:none;stroke-opacity:1"
       d="m 223.895,506.306 h -25.5" /><path
       inkscape:connector-curvature="0"
       id="path48"
       style="fill:none;stroke:#000000;stroke-width:5.25;stroke-linecap:butt;stroke-linejoin:miter;stroke-miterlimit:4;stroke-dasharray:none;stroke-opacity:1"
       d="m 223.895,807.056 h -25.5" /><path
       inkscape:connector-curvature="0"
       id="path50"
       style="fill:none;stroke:#000000;stroke-width:5.25;stroke-linecap:butt;stroke-linejoin:miter;stroke-miterlimit:4;stroke-dasharray:none;stroke-opacity:1"
       d="m 223.895,1108.56 h -25.5" /><path
       inkscape:connector-curvature="0"
       id="path52"
       style="fill:none;stroke:#000000;stroke-width:5.25;stroke-linecap:butt;stroke-linejoin:miter;stroke-miterlimit:4;stroke-dasharray:none;stroke-opacity:1"
       d="m 223.895,1409.31 h -25.5" /><g
       transform="scale(0.114641)"
       id="g54"><path
         inkscape:connector-curvature="0"
         id="path56"
         style="fill:none;stroke:#000000;stroke-width:45.79520035;stroke-linecap:butt;stroke-linejoin:miter;stroke-miterlimit:4;stroke-dasharray:none;stroke-opacity:1"
         d="m 16300,1786.5 v 11560" /></g><g
       transform="scale(0.115423)"
       id="g58"><path
         inkscape:connector-curvature="0"
         id="path60"
         style="fill:none;stroke:#000000;stroke-width:45.48490143;stroke-linecap:butt;stroke-linejoin:miter;stroke-miterlimit:4;stroke-dasharray:none;stroke-opacity:1"
         d="M 16189.5,3080.46 H 16300" /></g><g
       transform="scale(0.115423)"
       id="g62"><path
         inkscape:connector-curvature="0"
         id="path64"
         style="fill:none;stroke:#000000;stroke-width:45.48490143;stroke-linecap:butt;stroke-linejoin:miter;stroke-miterlimit:4;stroke-dasharray:none;stroke-opacity:1"
         d="M 16189.5,5686.1 H 16300" /></g><g
       transform="scale(0.115423)"
       id="g66"><path
         inkscape:connector-curvature="0"
         id="path68"
         style="fill:none;stroke:#000000;stroke-width:45.48490143;stroke-linecap:butt;stroke-linejoin:miter;stroke-miterlimit:4;stroke-dasharray:none;stroke-opacity:1"
         d="M 16189.5,8298.23 H 16300" /></g><g
       transform="scale(0.115423)"
       id="g70"><path
         inkscape:connector-curvature="0"
         id="path72"
         style="fill:none;stroke:#000000;stroke-width:45.48490143;stroke-linecap:butt;stroke-linejoin:miter;stroke-miterlimit:4;stroke-dasharray:none;stroke-opacity:1"
         d="M 16189.5,10910.4 H 16300" /></g><g
       transform="scale(0.116205)"
       id="g74"><path
         inkscape:connector-curvature="0"
         id="path76"
         style="fill:none;stroke:#000000;stroke-width:45.17869949;stroke-linecap:butt;stroke-linejoin:miter;stroke-miterlimit:4;stroke-dasharray:none;stroke-opacity:1"
         d="M 16080.6,1762.45 H 16300" /></g><g
       transform="scale(0.116205)"
       id="g78"><path
         inkscape:connector-curvature="0"
         id="path80"
         style="fill:none;stroke:#000000;stroke-width:45.17869949;stroke-linecap:butt;stroke-linejoin:miter;stroke-miterlimit:4;stroke-dasharray:none;stroke-opacity:1"
         d="M 16080.6,4357 H 16300" /></g><g
       transform="scale(0.116205)"
       id="g82"><path
         inkscape:connector-curvature="0"
         id="path84"
         style="fill:none;stroke:#000000;stroke-width:45.17869949;stroke-linecap:butt;stroke-linejoin:miter;stroke-miterlimit:4;stroke-dasharray:none;stroke-opacity:1"
         d="M 16080.6,6945.09 H 16300" /></g><g
       transform="scale(0.116205)"
       id="g86"><path
         inkscape:connector-curvature="0"
         id="path88"
         style="fill:none;stroke:#000000;stroke-width:45.17869949;stroke-linecap:butt;stroke-linejoin:miter;stroke-miterlimit:4;stroke-dasharray:none;stroke-opacity:1"
         d="M 16080.6,9539.64 H 16300" /></g><g
       transform="scale(0.116205)"
       id="g90"><path
         inkscape:connector-curvature="0"
         id="path92"
         style="fill:none;stroke:#000000;stroke-width:45.17869949;stroke-linecap:butt;stroke-linejoin:miter;stroke-miterlimit:4;stroke-dasharray:none;stroke-opacity:1"
         d="M 16080.6,12127.7 H 16300" /></g><g
       id="g94"><text
   id="text104"
   style="font-variant:normal;font-weight:normal;font-size:92.8125px;font-family:'Times New Roman';-inkscape-font-specification:TimesNewRomanPSMT;writing-mode:lr-tb;fill:#000000;fill-opacity:1;fill-rule:nonzero;stroke:none"
   transform="matrix(1,0,0,-1,-3.35352,176.305)"><tspan
     id="tspan96"
     sodipodi:role="line"
     y="0"
     x="0 46.40625 69.609375 116.01562">0.75</tspan><tspan
     id="tspan98"
     sodipodi:role="line"
     y="-301.5"
     x="0 46.40625 69.609375 116.01562">1.00</tspan><tspan
     id="tspan100"
     sodipodi:role="line"
     y="-1204.5"
     x="0 46.40625 69.609375 116.01562">1.75</tspan><tspan
     id="tspan102"
     sodipodi:role="line"
     y="76.739998"
     x="198.787 720.76453 767.17078 1269.0367 1315.443 1817.2802 1863.6864">0204060</tspan></text>

</g><path
       inkscape:connector-curvature="0"
       id="path106"
       style="fill:#000000;fill-opacity:1;fill-rule:evenodd;stroke:none;stroke-width:0.1"
       d="m 855.324,43.623 0.656,0.7098 0.633,0.657 0.629,0.6602 0.606,0.6289 0.578,0.6051 0.578,0.5781 0.551,0.5789 0.527,0.5539 0.527,0.5242 0.524,0.5 1,1 0.472,0.445 0.5,0.4769 0.922,0.8668 0.895,0.8402 0.867,0.7891 0.867,0.7609 0.84,0.7661 1.711,1.473 0.867,0.7609 0.867,0.7348 c 0,0.1332 8.102,7.0742 12.832,11.8082 12.438,12.2 15.332,18.4852 15.332,18.957 0,1.3168 -1.21,1.3168 -1.445,1.3168 -0.922,0 -1.316,-0.2386 -1.972,-1.4218 -3.918,-6.2852 -6.653,-8.3871 -9.836,-8.3871 -3.157,0 -4.707,1.973 -6.68,4.18 -2.473,3.0512 -4.68,5.6289 -9.043,5.6289 -9.809,0 -15.832,-12.1488 -15.832,-14.9097 0,-0.6571 0.367,-1.4223 1.578,-1.4223 1.184,0 1.422,0.6602 1.684,1.4223 2.496,6.0461 10.097,6.1789 11.121,6.1789 2.761,0 5.261,-0.9449 8.258,-1.9719 5.257,-1.973 6.707,-1.973 10.125,-1.973 -4.735,-5.625 -15.754,-15.0942 -18.2,-17.1719 L 857.059,49.7789 C 848.145,40.9941 843.543,33.525 843.543,32.607 c 0,-1.316 1.312,-1.316 1.551,-1.316 1.078,0 1.316,0.2649 2.105,1.6828 3.047,4.6024 6.942,8.1524 11.149,8.1524 3.023,0 4.34,-1.2102 7.597,-4.9684 2.262,-2.7617 4.602,-4.8668 8.364,-4.8668 12.988,0 20.589,16.6442 20.589,20.1668 0,0.6613 -0.527,1.3172 -1.55,1.3172 -1.211,0 -1.45,-0.7621 -1.868,-1.7109 -3,-8.52 -11.359,-10.9653 -15.726,-10.9653 -2.578,0 -4.969,0.766 -7.731,1.684 -4.418,1.6832 -6.39,2.2113 -9.152,2.2113 -0.262,0 -2.34,0 -3.547,-0.3711 z" /><path
       inkscape:connector-curvature="0"
       id="path108"
       style="fill:#000000;fill-opacity:1;fill-rule:evenodd;stroke:none;stroke-width:0.1"
       d="M 991.691,1.31406 V 1.47383 L 991.664,1.525 v 0.07813 l -0.027,0.02695 -0.024,0.05078 v 0.05508 l -0.027,0.05117 -0.055,0.05391 -0.023,0.07812 -0.055,0.05469 -0.051,0.07812 -0.054,0.07813 -0.051,0.07773 -0.078,0.0793 -0.082,0.10508 -0.024,0.05469 -0.054,0.05117 -0.051,0.0539 -0.028,0.05118 -0.05,0.05468 -0.055,0.07813 -0.051,0.05117 -0.082,0.05391 -0.051,0.07812 -0.05,0.05078 -0.082,0.07813 -0.051,0.08203 -0.156,0.15703 -0.082,0.07773 -0.079,0.07813 -0.078,0.08203 -0.078,0.07813 -0.078,0.10468 -0.105,0.0793 -0.082,0.10508 -0.106,0.07773 -0.101,0.10625 -0.083,0.10469 C 973.125,20.693 968.918,45.4391 968.918,65.4738 c 0,22.8012 4.973,45.6252 21.09,61.9532 1.683,1.606 1.683,1.867 1.683,2.262 0,0.922 -0.5,1.289 -1.261,1.289 -1.317,0 -13.121,-8.887 -20.852,-25.508 -6.68,-14.4372 -8.258,-28.9759 -8.258,-39.9962 0,-10.2258 1.446,-26.0308 8.625,-40.8629 7.864,-16.11676 19.168,-24.60972812 20.485,-24.60972812 0.761,0 1.261,0.36796912 1.261,1.31288812 z" /><path
       inkscape:connector-curvature="0"
       id="path110"
       style="fill:#000000;fill-opacity:1;fill-rule:evenodd;stroke:none;stroke-width:0.1"
       d="m 1029.43,78.7012 0.05,0.2648 0.08,0.2891 0.05,0.289 0.08,0.2887 0.08,0.3172 0.07,0.3121 0.16,0.6328 0.16,0.6563 0.16,0.6609 0.16,0.6289 0.15,0.6559 0.08,0.289 0.06,0.3161 0.15,0.5781 0.06,0.266 0.05,0.2617 0.05,0.2613 0.05,0.211 0.06,0.239 0.05,0.1829 0.05,0.3671 0.03,0.1329 0.02,0.1289 v 0.1601 c 0,2.207 -1.55,3.5238 -3.76,3.5238 -0.42,0 -4.07,-0.1058 -5.26,-4.6796 l -18.88,-75.8911 c -0.36,-1.54996 -0.36,-1.78902 -0.36,-2.07808 0,-1.94493 1.44,-3.54688 3.65,-3.54688 2.76,0 4.31,2.39102 4.6,2.75781 0.5,1.18399 2.24,8.02425 7.21,28.19215 4.18,-3.5242 10.04,-4.0781 12.67,-4.0781 9.18,0 14.31,5.8899 17.43,9.5738 1.19,-5.9179 6.05,-9.5738 11.81,-9.5738 4.61,0 7.58,3 9.68,7.207 2.23,4.7071 3.94,12.7258 3.94,12.9598 0,1.3172 -1.18,1.3172 -1.55,1.3172 -1.31,0 -1.44,-0.527 -1.86,-2.3672 -2.22,-8.5199 -4.6,-16.2226 -9.95,-16.2226 -3.52,0 -3.94,3.391 -3.94,6.0199 0,2.8937 1.58,9.0461 2.63,13.5969 l 3.68,14.1992 c 0.4,1.9687 1.66,6.9418 2.21,8.9148 0.66,2.9961 1.97,7.9641 1.97,8.7262 0,2.3949 -1.86,3.5508 -3.78,3.5508 -0.66,0 -4.08,-0.1289 -5.13,-4.5739 l -6.18,-24.5082 c -1.55,-6.5468 -3,-12.0429 -3.39,-13.3597 -0.14,-0.6563 -6.42,-12.566 -17.01,-12.566 -6.55,0 -9.71,4.3128 -9.71,11.3589 0,3.8399 0.92,7.493 1.84,11.1758 z" /><path
       inkscape:connector-curvature="0"
       id="path112"
       style="fill:#000000;fill-opacity:1;fill-rule:evenodd;stroke:none;stroke-width:0.1"
       d="M 1092.43,77.8059 V 42.677 c 0,-5.8629 -1.42,-5.8629 -10.23,-5.8629 v -4.0782 c 4.6,0.1332 11.25,0.4219 14.8,0.4219 3.39,0 10.23,-0.2887 14.68,-0.4219 v 4.0782 c -8.76,0 -10.21,0 -10.21,5.8629 v 24.114 c 0,13.6481 9.29,20.957 17.67,20.957 8.26,0 9.71,-7.075 9.71,-14.5429 V 42.677 c 0,-5.8629 -1.45,-5.8629 -10.23,-5.8629 v -4.0782 c 4.6,0.1332 11.28,0.4219 14.83,0.4219 3.39,0 10.18,-0.2887 14.64,-0.4219 v 4.0782 c -8.78,0 -10.22,0 -10.22,5.8629 v 24.114 c 0,13.6481 9.33,20.957 17.72,20.957 8.26,0 9.7,-7.075 9.7,-14.5429 V 42.677 c 0,-5.8629 -1.44,-5.8629 -10.23,-5.8629 v -4.0782 c 4.55,0.1332 11.26,0.4219 14.78,0.4219 3.42,0 10.23,-0.2887 14.68,-0.4219 v 4.0782 c -6.79,0 -10.08,0 -10.21,3.9449 v 25.0039 c 0,11.2582 0,15.332 -4.05,20.0121 -1.87,2.2621 -6.18,4.8398 -13.78,4.8398 -11.02,0 -16.75,-7.8359 -18.98,-12.8089 -1.84,11.3871 -11.55,12.8089 -17.41,12.8089 -9.57,0 -15.75,-5.6289 -19.41,-13.6988 V 90.6148 L 1082.2,89.193 v -4.0739 c 9.18,0 10.23,-0.8953 10.23,-7.3132 z" /><path
       inkscape:connector-curvature="0"
       id="path114"
       style="fill:#000000;fill-opacity:1;fill-rule:evenodd;stroke:none;stroke-width:0.1"
       d="m 1225.04,65.4738 v 0.9731 l -0.03,1.0269 -0.03,1.0242 -0.02,1.0782 -0.11,2.2109 -0.16,2.3117 -0.21,2.4223 -0.29,2.4961 -0.34,2.5508 -0.44,2.6558 -0.5,2.684 -0.61,2.707 -0.71,2.7614 -0.81,2.7859 -0.92,2.816 -1.03,2.8129 -0.55,1.394 -0.61,1.391 -0.6,1.394 -0.66,1.395 c -7.86,16.093 -19.12,24.613 -20.43,24.613 -0.76,0 -1.32,-0.5 -1.32,-1.289 0,-0.395 0,-0.656 2.48,-3.023 12.86,-12.938 20.32,-33.7898 20.32,-61.1922 0,-22.375 -4.83,-45.4367 -21.11,-61.9488 -1.69,-1.55117 -1.69,-1.84414 -1.69,-2.21094 0,-0.78906 0.56,-1.31288812 1.32,-1.31288812 1.31,0 13.07,8.91484812 20.83,25.53162812 6.67,14.3832 8.23,28.925 8.23,39.941 z" /><g
       id="g116"><text
   id="text132"
   style="font-variant:normal;font-weight:normal;font-size:85px;font-family:'Times New Roman';-inkscape-font-specification:TimesNewRomanPSMT;writing-mode:lr-tb;fill:#000000;fill-opacity:1;fill-rule:nonzero;stroke:none"
   transform="matrix(1,0,0,-1,990.638,385.938)"><tspan
     id="tspan118"
     y="0"
     x="0">1</tspan><tspan
     id="tspan120"
     y="-760.284"
     x="141.24001">2</tspan><tspan
     id="tspan122"
     y="-798.29102"
     x="590.547">5</tspan><tspan
     id="tspan124"
     y="-996.35699"
     x="532.46301">4</tspan><tspan
     id="tspan126"
     y="-917.36749"
     x="182.821">3</tspan><tspan
     id="tspan128"
     y="-914.40851"
     x="-622.42999">6</tspan><tspan
     id="tspan130"
     y="-1040.1956"
     x="-520.789">7</tspan></text>

</g><g
       transform="scale(0.120392)"
       id="g134"><path
         inkscape:connector-curvature="0"
         id="path136"
         style="fill:#000000;fill-opacity:1;fill-rule:evenodd;stroke:none"
         d="m 16005.4,2625 3.2,-1.33 3.4,-1.04 3.2,-1.07 3.2,-1.07 3,-1.07 3.2,-0.82 2.9,-0.77 3.2,-0.81 2.9,-0.82 3,-0.51 5.8,-1.08 5.6,-1.07 5.6,-0.52 5.6,-0.81 5.3,-0.26 5.4,-0.26 5.3,-0.29 5.4,-0.26 h 15.2 V 2637 c -14.2,0 -32.9,0 -49.7,3.73 10.5,2.96 28.9,7.47 56.9,7.47 20.2,0 25.3,-0.78 43.7,-4.51 -13.9,-5.36 -16.8,-6.69 -50.9,-6.69 v -25.86 c 29.5,0 84.2,0 84.2,34.13 0,25.6 -34.9,28.82 -74.9,28.82 -13.1,0 -53.1,0 -98.9,-18.4 -21.1,10.12 -35,27.97 -35,48.51 0,49.87 89.9,81.6 183.7,81.6 15,0 55,0 96.8,-25.86 5.6,-3.73 11.2,-8.27 18.7,-8.27 12.8,0 29.6,13.59 29.6,29.58 0,18.69 -30.4,31.48 -48.3,38.94 -40,16.81 -72.5,16.81 -86.4,16.81 -113.3,0 -225.8,-59.47 -225.8,-133.87 0,-38.13 35.5,-62.4 36.3,-63.17 -34.7,-20.54 -80.8,-61.33 -80.8,-119.99 0,-67.49 66.6,-120.8 170.1,-120.8 141,0 191.2,83.71 191.2,98.64 0,6.42 -5.6,12.01 -13.1,12.01 -5.3,0 -8.3,-3.74 -11.2,-7.47 -22.9,-36.27 -53.6,-51.98 -152,-51.98 -23.4,0 -67.2,0 -100.5,12.78 -37.1,14.41 -52.8,39.2 -52.8,62.66 0,21.09 15.7,66.68 78.7,99.19 z" /></g><g
       transform="scale(0.125493)"
       id="g138"><path
         inkscape:connector-curvature="0"
         id="path140"
         style="fill:#000000;fill-opacity:1;fill-rule:evenodd;stroke:none"
         d="m 16052.1,2596.34 v 7.15 l -0.2,1.28 v 1.03 l -0.3,1.27 -0.2,1.03 v 1.28 l -0.3,1.02 -0.5,1.03 -0.3,1.03 -0.5,1.27 -0.3,1.03 -0.4,0.75 -0.5,1.03 -0.8,1.02 -2.3,2.31 -0.6,0.49 -0.2,0.29 -0.5,0.25 -0.5,0.24 -0.5,0.25 -0.5,0.53 -0.8,0.25 h -0.5 l -0.5,0.25 -0.8,0.25 -0.5,0.28 h -0.8 l -0.7,0.25 h -0.8 l -0.8,0.24 h -2.3 c -17.9,0 -17.9,-17.64 -17.9,-27.1 V 2216.99 H 15796 c -9.7,0 -27.6,0 -27.6,-17.65 0,-17.93 17.9,-17.93 27.6,-17.93 h 476.4 c 10.5,0 27.6,0 27.6,17.93 0,17.65 -17.1,17.65 -27.6,17.65 h -220.3 z" /></g><g
       transform="scale(0.126696)"
       id="g142"><path
         inkscape:connector-curvature="0"
         id="path144"
         style="fill:#000000;fill-opacity:1;fill-rule:nonzero;stroke:none"
         d="M 15074.7,2070.51 H 16300 v 51.68 h -1225.3" /></g><g
       transform="scale(0.121148)"
       id="g146"><path
         inkscape:connector-curvature="0"
         id="path148"
         style="fill:#000000;fill-opacity:1;fill-rule:evenodd;stroke:none"
         d="m 16007.2,1603.55 3.2,-1.07 3.4,-1.32 3.2,-1.07 3.2,-1.03 2.9,-0.8 3.2,-0.81 2.9,-0.77 3.2,-0.81 2.9,-0.8 2.9,-0.52 5.8,-1.32 5.6,-0.81 5.5,-0.8 5.6,-0.52 5.3,-0.26 5.3,-0.54 h 5.3 l 5.3,-0.27 h 15.1 v 25.71 c -14,0 -32.6,0 -49.3,3.7 10.4,2.93 28.7,7.42 56.5,7.42 20.1,0 25.1,-0.77 43.4,-4.49 -13.8,-5.57 -16.7,-6.63 -50.6,-6.63 v -25.71 c 29.4,0 83.8,0 83.8,33.93 0,25.18 -34.8,28.62 -74.5,28.62 -13,0 -52.7,0 -98.3,-18.27 -21,10.05 -34.7,27.79 -34.7,47.94 0,49.82 89.3,81.36 182.5,81.36 14.9,0 54.6,0 96.2,-25.71 5.6,-3.71 11.1,-8.47 18.6,-8.47 12.7,0 29.4,13.76 29.4,29.4 0,18.83 -30.2,31.54 -48,38.95 -39.7,16.7 -72,16.7 -85.8,16.7 -112.6,0 -224.5,-59.36 -224.5,-133.03 0,-38.15 35.3,-62.01 36.1,-62.78 -34.5,-20.41 -80.3,-60.94 -80.3,-119.24 0,-67.06 66.2,-120.04 169.1,-120.04 140.1,0 189.9,83.19 189.9,98.02 0,6.09 -5.5,11.93 -13,11.93 -5.3,0 -8.1,-3.71 -11.1,-7.41 -22.8,-36.02 -53.3,-51.66 -151,-51.66 -23.3,0 -66.8,0 -99.9,12.7 -36.9,14.06 -52.5,38.96 -52.5,62.27 0,20.95 15.6,66.25 78.2,98.31 z" /></g><g
       transform="scale(0.124898)"
       id="g150"><path
         inkscape:connector-curvature="0"
         id="path152"
         style="fill:#000000;fill-opacity:1;fill-rule:evenodd;stroke:none"
         d="m 16232.1,1434.09 0.3,1.28 0.3,1.31 0.5,1.28 0.2,1.54 0.5,1.53 0.3,1.28 1.6,6.2 0.7,3.31 0.8,3.09 0.7,3.1 0.6,1.28 0.2,1.54 0.6,1.28 0.2,1.53 0.3,1.31 0.2,1.29 0.3,1 0.2,1.31 0.3,1 0.2,0.79 0.3,1.03 v 0.78 l 0.3,0.75 v 1.29 c 0,10.81 -8,22.64 -23.7,22.64 -11,0 -26.7,-7.73 -31.6,-25.71 -12.6,16.44 -36.5,38.53 -77.1,38.53 v -22.09 c 28.8,0 56.5,-17.47 66.6,-55.51 l -29.3,-120.57 c -2.9,-9.5 -2.9,-10.78 -14.2,-23.64 -23.6,-26.99 -56.8,-46.5 -88.9,-46.5 -22.6,0 -56.3,12.07 -56.3,65.02 0,29.8 15.1,96.89 37.8,130.04 24.9,35.46 57.3,51.16 84.3,51.16 v 22.09 c -90,0 -179.9,-88.14 -179.9,-178.87 0,-65.3 48,-111.56 112,-111.56 52.5,0 93.6,37.28 101.3,44.98 11.6,-31.34 46.8,-44.98 75.3,-44.98 25.7,0 42.9,14.92 56.8,36.25 16.5,24.68 25.2,58.58 25.2,63.21 0,9.01 -10.8,9.01 -13.4,9.01 -11.5,0 -11.8,-4.1 -15.1,-14.14 -11.6,-47.29 -28.1,-72.21 -50.7,-72.21 -17.9,0 -25.7,14.13 -25.7,33.65 0,9.78 6.5,34.18 10.6,51.42 z" /></g><g
       transform="scale(0.121399)"
       id="g154"><path
         inkscape:connector-curvature="0"
         id="path156"
         style="fill:#000000;fill-opacity:1;fill-rule:evenodd;stroke:none"
         d="m 16038.8,12649.7 2.8,-1.1 3.1,-1.2 2.8,-1 2.9,-0.7 2.6,-0.9 2.8,-0.7 2.6,-0.8 2.8,-0.7 2.7,-0.7 2.6,-0.4 5.1,-1 5,-0.9 5,-0.8 4.9,-0.4 4.8,-0.3 9.4,-0.4 4.8,-0.3 h 13.4 v 23 c -12.5,0 -29.1,0 -44,3.3 9.3,2.6 25.6,6.6 50.4,6.6 18,0 22.5,-0.7 38.8,-4 -12.3,-4.7 -14.9,-5.9 -45.2,-5.9 v -23 c 26.3,0 74.7,0 74.7,30.3 0,22.5 -30.9,25.5 -66.4,25.5 -11.6,0 -47,0 -87.7,-16.3 -18.7,9 -31,24.9 -31,42.8 0,44.4 79.9,72.6 162.9,72.6 13.2,0 48.7,0 85.8,-22.9 5,-3.4 9.9,-7.4 16.6,-7.4 11.3,0 26.2,12.1 26.2,26 0,16.8 -26.9,28.1 -42.8,34.8 -35.5,14.9 -64.3,14.9 -76.6,14.9 -100.4,0 -200.2,-53 -200.2,-118.7 0,-33.8 31.4,-55.3 32.1,-56 -30.4,-18.2 -71.6,-54.4 -71.6,-106.4 0,-59.8 59.1,-107.1 150.9,-107.1 125,0 169.4,74.2 169.4,87.5 0,5.4 -4.9,10.6 -11.6,10.6 -4.7,0 -7.3,-3.3 -9.9,-6.6 -20.3,-32.1 -47.5,-46.1 -134.7,-46.1 -20.8,0 -59.6,0 -89.2,11.3 -32.8,12.6 -46.7,34.8 -46.7,55.6 0,18.7 13.9,59.1 69.7,87.9 z" /></g><g
       transform="scale(0.122969)"
       id="g158"><path
         inkscape:connector-curvature="0"
         id="path160"
         style="fill:#000000;fill-opacity:1;fill-rule:evenodd;stroke:none"
         d="m 16300,12562.1 v 2.6 l -0.3,0.9 v 4 l -0.2,1 -0.2,0.9 v 1.2 l -0.3,0.9 -0.2,0.9 -0.2,0.9 -0.5,1 -0.2,0.9 -0.5,0.9 -0.5,1 -0.4,0.9 -0.7,0.7 -0.5,0.7 -1.1,1.2 -0.5,0.2 -0.2,0.5 -1,0.4 -0.4,0.3 -0.5,0.2 -0.5,0.3 -0.4,0.2 -0.7,0.2 -0.5,0.3 -0.5,0.2 -0.7,0.2 h -0.7 l -0.4,0.3 h -1.5 l -0.7,0.2 h -1.6 c -16.3,0 -16.3,-17.5 -16.3,-27.1 v -527.7 c 0,-9.3 0,-26.8 16.3,-26.8 16.6,0 16.6,15.2 16.6,24 z" /></g><g
       transform="scale(0.124012)"
       id="g162"><path
         inkscape:connector-curvature="0"
         id="path164"
         style="fill:#000000;fill-opacity:1;fill-rule:evenodd;stroke:none"
         d="m 16300,12453.6 v 4.8 l -0.2,1.2 v 2.1 l -0.3,1.1 v 1.2 l -0.4,2.3 -0.3,0.9 -0.2,1.2 -0.2,1.1 -0.5,1 -0.5,1.1 -0.4,0.9 -0.5,1 -0.4,0.9 -0.7,0.9 -1.9,1.9 -0.4,0.2 -0.5,0.5 -0.5,0.2 -0.5,0.2 -0.4,0.5 -0.9,0.4 -0.7,0.3 h -0.5 l -1.4,0.4 h -0.4 l -0.7,0.3 h -0.7 l -0.7,0.2 h -1.6 c -15.8,0 -15.8,-15.3 -15.8,-23.8 v -529.1 c 0,-8.8 0,-23.8 15.8,-23.8 16.4,0 16.4,17.4 16.4,26.6 z" /></g><g
       transform="scale(0.125598)"
       id="g166"><path
         inkscape:connector-curvature="0"
         id="path168"
         style="fill:#000000;fill-opacity:1;fill-rule:nonzero;stroke:none"
         d="m 15370.5,11671.8 h 929.5 v 46.6 h -929.5" /></g><g
       transform="scale(0.121314)"
       id="g170"><path
         inkscape:connector-curvature="0"
         id="path172"
         style="fill:#000000;fill-opacity:1;fill-rule:evenodd;stroke:none"
         d="m 16038.6,11582.4 2.8,-0.9 3.1,-1.2 5.7,-1.9 2.6,-0.7 2.8,-0.7 2.6,-0.8 2.8,-0.7 2.7,-0.7 2.6,-0.4 5.2,-1.2 9.9,-1.4 5,-0.5 4.7,-0.3 4.7,-0.4 h 4.8 l 4.7,-0.3 h 13.5 v 23 c -12.5,0 -29.1,0 -44,3.3 9.2,2.6 25.5,6.6 50.4,6.6 18,0 22.4,-0.7 38.8,-4 -12.3,-5 -15,-5.9 -45.2,-5.9 v -23 c 26.2,0 74.7,0 74.7,30.3 0,22.5 -31,25.6 -66.4,25.6 -11.6,0 -47.1,0 -87.8,-16.4 -18.7,9 -31,24.9 -31,42.9 0,44.4 79.7,72.6 163,72.6 13.2,0 48.7,0 85.9,-23 4.9,-3.3 9.9,-7.5 16.5,-7.5 11.4,0 26.3,12.3 26.3,26.2 0,16.8 -27,28.2 -42.8,34.8 -35.5,14.9 -64.4,14.9 -76.7,14.9 -100.5,0 -200.3,-53 -200.3,-118.8 0,-34 31.4,-55.3 32.1,-56 -30.7,-18.2 -71.6,-54.4 -71.6,-106.5 0,-59.8 59.1,-107.1 150.9,-107.1 125.1,0 169.6,74.2 169.6,87.5 0,5.4 -5,10.6 -11.6,10.6 -4.7,0 -7.3,-3.3 -9.9,-6.6 -20.4,-32.2 -47.6,-46.1 -134.9,-46.1 -20.8,0 -59.6,0 -89.2,11.3 -32.9,12.6 -46.8,34.8 -46.8,55.6 0,18.7 13.9,59.2 69.8,87.8 z" /></g><g
       transform="scale(0.124667)"
       id="g174"><path
         inkscape:connector-curvature="0"
         id="path176"
         style="fill:#000000;fill-opacity:1;fill-rule:evenodd;stroke:none"
         d="m 16239.2,11162.3 0.3,1.2 0.2,1.1 0.5,1.2 0.2,1.3 0.4,1.4 0.3,1.2 1.3,5.5 0.7,3 1.4,5.5 0.5,1.2 0.2,1.3 0.5,1.2 0.2,1.4 0.2,1.1 0.3,1.2 0.2,0.9 0.2,1.1 0.3,1 0.2,0.7 0.2,0.9 v 0.7 l 0.2,0.7 v 0.9 l 0.3,0.2 c 0,9.7 -7.4,20.3 -21.4,20.3 -9.9,0 -24,-6.9 -28.3,-23 -11.3,14.7 -32.7,34.5 -69.1,34.5 v -19.8 c 25.8,0 50.6,-15.7 59.6,-49.7 l -26.2,-108 c -2.6,-8.5 -2.6,-9.7 -12.5,-21.2 -21.4,-24.2 -51.1,-41.6 -79.8,-41.6 -20.3,0 -50.4,10.8 -50.4,58.2 0,26.7 13.5,86.8 33.8,116.5 22.3,31.8 51.3,45.8 75.5,45.8 v 19.8 c -80.6,0 -161.1,-79 -161.1,-160.2 0,-58.5 43,-99.9 100.3,-99.9 47.2,0 83.8,33.3 90.7,40.3 10.4,-28.2 41.9,-40.3 67.5,-40.3 23,0 38.7,13.3 50.8,32.4 14.8,22.1 22.6,52.5 22.6,56.6 0,8.1 -9.7,8.1 -11.7,8.1 -10.6,0 -10.9,-3.7 -13.9,-12.7 -10.3,-42.3 -25,-64.6 -45.3,-64.6 -16.1,0 -23,12.6 -23,30.1 0,8.8 5.7,30.6 9.4,46 z" /></g><g
       transform="scale(0.114595)"
       id="g178"><path
         inkscape:connector-curvature="0"
         id="path180"
         style="fill:none;stroke:#000000;stroke-width:13.08959961;stroke-linecap:butt;stroke-linejoin:miter;stroke-miterlimit:4;stroke-dasharray:none;stroke-opacity:1"
         d="m 1947.25,2310.81 c 608.23,127.04 1219.27,240.52 1832.55,340.33 662.76,107.84 1328.22,199.75 1996.16,268.33 889.4,91.29 1782.91,141.19 2676.82,157.08 846.67,15.03 1693.82,-0.45 2539.42,-45.82 888.6,-47.69 1775.5,-128.44 2657.2,-248.7 631.2,-86.1 1259.6,-192.43 1884.9,-314.15 255.7,-49.8 511,-102.16 765.7,-157.07" /></g><g
       transform="scale(0.114503)"
       id="g182"><path
         inkscape:connector-curvature="0"
         id="path184"
         style="fill:none;stroke:#000000;stroke-width:13.10009956;stroke-linecap:butt;stroke-linejoin:miter;stroke-miterlimit:4;stroke-dasharray:none;stroke-opacity:1"
         d="m 1968.47,2319.21 c 84.6,219.39 171.97,437.77 262,655.01 336.78,812.31 711.4,1608.72 1113.51,2390.77 441.41,858.36 916.53,1700.49 1454.11,2502.12 535.61,798.6 1138.59,1562.16 1879.87,2174.59 366.52,302.8 767.31,568.2 1205.21,753.3 441.85,186.8 922.53,290.2 1401.72,268.5 455.05,-20.5 901.01,-153.2 1310.01,-353.7 603,-295.6 1125.8,-734.62 1591.7,-1218.27 370.3,-384.44 708.5,-799.21 1021.8,-1231.41 523.9,-722.73 978.1,-1493.69 1401.7,-2279.42 630.7,-1169.94 1195.2,-2375.53 1689.9,-3609.09" /></g><g
       transform="scale(0.114687)"
       id="g186"><path
         inkscape:connector-curvature="0"
         id="path188"
         style="fill:none;stroke:#000000;stroke-width:13.07909966;stroke-linecap:butt;stroke-linejoin:miter;stroke-miterlimit:4;stroke-dasharray:none;stroke-opacity:1"
         d="m 1965.31,2308.95 c 179.63,528.11 367.13,1053.51 562.4,1576.03 231.6,619.59 474.18,1235.16 732.43,1844.16 379.32,894.38 792.61,1774.84 1255.59,2628.89 389.79,718.94 815.43,1420.14 1307.91,2073.07 456.03,604.5 974.77,1171.7 1602.19,1595.6 395.03,266.9 836.78,476.4 1307.91,549.3 332.08,51.4 674.08,33.8 1000.55,-45.7 583.01,-142.1 1103.81,-475.8 1556.41,-869.8 477.3,-415.5 889.4,-901.2 1262.1,-1412.5 432.9,-593.91 814.5,-1223.99 1164.1,-1870.35 445.4,-823.5 839.3,-1673.85 1216.3,-2530.8 296.5,-673.74 582.7,-1352.16 843.6,-2040.34 187.6,-494.49 362.1,-993.91 523.2,-1497.56" /></g><g
       transform="scale(0.114641)"
       id="g190"><path
         inkscape:connector-curvature="0"
         id="path192"
         style="fill:none;stroke:#000000;stroke-width:13.08430004;stroke-linecap:butt;stroke-linejoin:miter;stroke-miterlimit:4;stroke-dasharray:none;stroke-opacity:1"
         d="m 1953.01,2309.88 c 83.27,241.92 166.14,483.98 248.61,726.18 101.8,298.99 203,598.2 307.48,896.28 334.94,955.63 703.55,1899.68 1112.17,2826.22 278.35,631.04 575.27,1254.05 896.27,1864.52 450.67,856.95 950.66,1691.92 1557.04,2446.72 368.54,458.8 779.74,890.3 1269.18,1216.9 380.71,254 810,442.8 1262.64,510.3 93.23,13.9 187.17,22.6 281.32,26.2 h 516.83 c 85.42,-4.4 170.64,-13.1 255.14,-26.2 248.23,-38.5 489.91,-114.4 719.61,-215.9 235.5,-104.1 458.8,-235 667.3,-386 438.5,-317.6 808.1,-721 1144.9,-1144.9 329.5,-414.7 630.6,-851.6 909.4,-1301.87 305.9,-493.97 585,-1004.22 843.9,-1524.33 214.4,-430.66 414.9,-868.09 608.4,-1308.43 173.5,-394.54 341.5,-791.47 503.8,-1190.68 250.7,-616.46 487.9,-1238.31 713.1,-1864.52 184.8,-514 361.5,-1030.9 529.9,-1550.49" /></g><g
       transform="scale(0.114641)"
       id="g194"><path
         inkscape:connector-curvature="0"
         id="path196"
         style="fill:none;stroke:#000000;stroke-width:13.08430004;stroke-linecap:butt;stroke-linejoin:miter;stroke-miterlimit:4;stroke-dasharray:none;stroke-opacity:1"
         d="m 1946.47,2309.88 c 89.58,313.95 178.99,627.98 268.23,942.07 250.16,880.1 499.25,1760.8 785.06,2629.95 354.4,1077.59 764.85,2136.23 1210.3,3179.5 360.63,844.55 749.96,1688.7 1321.52,2407.5 292.28,367.5 629.14,698 987.87,1001 130.33,110 267.75,215.8 426.3,278.6 158.57,62.9 332.11,74.7 502.69,74.7 h 3323.46 c 70.3,-4.1 140.2,-12.9 209.3,-26.2 225,-43.6 438.8,-136.1 634.6,-255.2 306.2,-186.2 569.3,-436.3 804.7,-706.5 345.4,-396.6 635,-839 896.3,-1295.4 C 13939,9452.98 14404,8283.74 14828,7105.29 c 165.6,-460.1 325.2,-922.34 477.6,-1386.94 246.4,-751.3 473.7,-1508.79 686.9,-2270.13 106,-378.5 208.5,-757.97 307.5,-1138.34" /></g><g
       transform="scale(0.114595)"
       id="g198"><path
         inkscape:connector-curvature="0"
         id="path200"
         style="fill:none;stroke:#000000;stroke-width:13.08959961;stroke-linecap:butt;stroke-linejoin:miter;stroke-miterlimit:4;stroke-dasharray:none;stroke-opacity:1"
         d="m 1947.25,2310.81 c 72.4,353.79 146.57,707.21 222.53,1060.25 167.57,778.69 343.9,1555.52 530.12,2329.95 106.8,443.96 216.83,887.2 333.79,1328.6 247.71,934.81 526.65,1862.06 863.91,2768.45 242.77,652.34 516.87,1295.84 877.01,1891.44 141.63,234.2 297.07,461.5 484.31,661 128.99,137.5 273.72,261.9 438.5,353.4 122.98,68.3 258.72,118.2 399.24,124.4 9.37,0.4 18.74,0.6 28.11,0.6 l 7647.998,-0.6 c 0,0 1777.863,358.146 2511.576,-6673.2668"
         sodipodi:nodetypes="ccccccccccc" /></g><g
       transform="scale(0.114595)"
       id="g202"><path
         inkscape:connector-curvature="0"
         id="path204"
         style="fill:none;stroke:#000000;stroke-width:13.08959961;stroke-linecap:butt;stroke-linejoin:miter;stroke-miterlimit:4;stroke-dasharray:none;stroke-opacity:1"
         d="m 1953.8,2310.81 c 58.18,360.88 116.77,721.69 175.78,1082.44 82.36,503.65 165.57,1007.19 258.01,1509.06 121.11,657.68 258.01,1312.36 398.45,1966.2 134.58,626.33 272.5,1252.17 435.2,1871.77 151.17,575.75 323.66,1145.69 506.2,1712.22 121.01,375.6 246.95,751 418.87,1106.1 116.34,240.3 253.19,470.2 399.23,693.8 91.93,140.6 189.56,281 320.69,386.1 75.03,60.1 159.8,107.5 248.71,144 38.34,15.7 77.72,29.2 118.42,36.9 40.73,7.7 82.31,8.9 123.73,8.9 H 16300" /></g><g
       id="g206"><text
   id="text210"
   style="font-variant:normal;font-weight:normal;font-size:92.8125px;font-family:'Times New Roman';-inkscape-font-specification:TimesNewRomanPSMT;writing-mode:lr-tb;fill:#000000;fill-opacity:1;fill-rule:nonzero;stroke:none"
   transform="matrix(1,0,0,-1,-3.35781,1084.09)"><tspan
     id="tspan208"
     sodipodi:role="line"
     y="0"
     x="0 46.40625 69.609375 116.01562">1.50</tspan></text>

</g><path
       inkscape:connector-curvature="0"
       id="path212"
       style="fill:#000000;fill-opacity:1;fill-rule:evenodd;stroke:none;stroke-width:0.1"
       d="m 32.5512,842.49 -0.1172,0.031 -0.0899,0.031 -0.18,0.028 -0.1481,0.058 -0.1762,0.031 -0.1488,0.032 -0.1211,0.058 -0.148,0.028 -0.1168,0.031 -0.1211,0.031 h -0.118 l -0.1172,0.027 -0.1207,0.032 -0.0902,0.027 H 30.648 l -0.0851,0.031 H 30.473 l -0.0902,0.032 H 30.293 l -0.1481,0.027 H 29.668 l -0.1481,0.031 h -0.3558 c -2.7032,0 -4.0121,-2.051 -4.0121,-4.281 0,-1.484 0.891,-3.863 3.121,-5.199 0.743,-0.297 5.2899,-1.489 7.993,-2.051 3.836,-1.07 7.8469,-2.082 11.8281,-2.973 l 26.6598,-6.687 c 2.2301,-0.563 12.5699,-6.926 12.5699,-16.703 0,-7.547 -6.4758,-9.211 -11.9758,-9.211 -6.805,0 -16.0199,2.554 -29.0039,7.578 -6.0941,2.379 -7.7312,2.972 -10.6992,2.972 -6.6289,0 -12.098,-4.726 -12.098,-12.156 0,-14.086 21.4301,-19.554 22.7972,-19.554 1.484,0 1.484,1.484 1.484,1.812 0,1.484 -0.3281,1.605 -2.7031,2.348 -13.941,4.011 -18.3398,9.894 -18.3398,14.949 0,1.187 0,3.715 4.7269,3.715 3.7149,0 7.5188,-1.489 10.3707,-2.528 C 57.5781,789.173 66.016,786.47 73,786.47 c 13.1371,0 17.5941,9.36 17.5941,18.071 0,5.824 -2.5242,10.816 -6.6562,14.949 7.6672,-1.903 14.9492,-3.657 22.8241,-9.602 4.992,-3.863 9.332,-9.48 9.332,-16.285 0,-2.051 -0.473,-8.738 -6.242,-11.266 0,2.379 0,4.34 -1.813,6.36 -1.277,1.488 -3.238,2.972 -6.031,2.972 -4.606,0 -5.2029,-3.98 -5.2029,-5.468 0,-3.387 2.3789,-8.321 9.6329,-8.321 7.429,0 12.898,6.567 12.898,15.723 0,15.273 -13.523,30.492 -30.227,34.684 z" /><path
       inkscape:connector-curvature="0"
       id="path214"
       style="fill:none;stroke:#000000;stroke-width:0.75;stroke-linecap:butt;stroke-linejoin:miter;stroke-miterlimit:4;stroke-dasharray:none;stroke-opacity:1"
       d="m 1331.49,1354.44 184.39,35.68" /><g
       id="g216"><text
   id="text220"
   style="font-variant:normal;font-weight:normal;font-size:85px;font-family:'Times New Roman';-inkscape-font-specification:TimesNewRomanPSMT;writing-mode:lr-tb;fill:#000000;fill-opacity:1;fill-rule:nonzero;stroke:none"
   transform="matrix(1,0,0,-1,302.407,1056.59)"><tspan
     id="tspan218"
     y="0"
     x="0">5</tspan></text>

</g><path
       inkscape:connector-curvature="0"
       id="path222"
       style="fill:none;stroke:#000000;stroke-width:0.75;stroke-linecap:butt;stroke-linejoin:miter;stroke-miterlimit:4;stroke-dasharray:none;stroke-opacity:1"
       d="m 346.68,1084.23 128.457,-45.42" /><path
       inkscape:connector-curvature="0"
       id="path224"
       style="fill:none;stroke:#000000;stroke-width:0.75;stroke-linecap:butt;stroke-linejoin:miter;stroke-miterlimit:4;stroke-dasharray:none;stroke-opacity:1"
       d="m 412.957,1315.35 83.93,-53.94" /><g
       id="g1249"
       transform="matrix(0.6430814,0,0,-0.6430814,1191.3331,1894.2298)"><g
         word-spacing="normal"
         letter-spacing="normal"
         font-size-adjust="none"
         font-stretch="normal"
         font-weight="normal"
         font-variant="normal"
         font-style="normal"
         stroke-miterlimit="10.433"
         xml:space="preserve"
         transform="matrix(2.9695239,0,0,-2.9695239,-519.66668,2066)"
         id="content"
         style="font-style:normal;font-variant:normal;font-weight:normal;font-stretch:normal;letter-spacing:normal;word-spacing:normal;text-anchor:start;fill:none;fill-opacity:1;fill-rule:evenodd;stroke:#000000;stroke-linecap:butt;stroke-linejoin:miter;stroke-miterlimit:10.43299961;stroke-dasharray:none;stroke-dashoffset:0;stroke-opacity:1"><path
           id="path1246"
           d="m 462.1,422.54 v 1.19 c 0,12.61 6.17,14.41 8.72,14.41 1.18,0 3.28,-0.3 4.37,-2 -0.73,0 -2.73,0 -2.73,-2.24 0,-1.54 1.2,-2.29 2.29,-2.29 0.8,0 2.29,0.45 2.29,2.39 0,3 -2.19,5.39 -6.32,5.39 -6.39,0 -13.11,-6.44 -13.11,-17.44 0,-13.31 5.78,-16.84 10.41,-16.84 5.53,0 10.27,4.68 10.27,11.25 0,6.32 -4.44,11.12 -9.97,11.12 l -0.05,-1.16 c 0.8,0 3.09,0 4.64,-3.09 0.89,-1.83 0.89,-4.37 0.89,-6.81 0,-2.39 0,-4.89 -0.84,-6.69 -1.5,-2.98 -3.78,-3.23 -4.94,-3.23 v 0 c -3.14,0 -4.63,2.98 -4.92,3.73 -0.91,2.34 -0.91,6.33 -0.91,7.23 0,3.88 1.6,8.86 6.08,8.86 l 0.05,1.16 c -3.38,0 -5.22,-2.55 -6.22,-4.94 z"
           inkscape:connector-curvature="0"
           style="fill:#000000;stroke-width:0" /></g></g></g></svg>